<?xml version="1.0" standalone="no"?>
<!DOCTYPE svg PUBLIC "-//W3C//DTD SVG 20010904//EN"
 "http://www.w3.org/TR/2001/REC-SVG-20010904/DTD/svg10.dtd">
<svg version="1.0" xmlns="http://www.w3.org/2000/svg"
 width="164.000000pt" height="164.000000pt" viewBox="0 0 164.000000 164.000000"
 preserveAspectRatio="xMidYMid meet">

<g transform="translate(0.000000,164.000000) scale(0.100000,-0.100000)"
fill="#000000" stroke="none">
<path d="M716 1535 c-71 -20 -164 -69 -218 -115 -173 -148 -219 -428 -104
-635 31 -55 62 -112 136 -250 15 -27 41 -74 58 -103 18 -29 32 -55 32 -57 0
-2 36 -69 80 -149 44 -79 80 -148 80 -153 1 -15 38 -53 52 -53 11 0 184 301
309 535 17 33 46 85 63 115 61 104 106 205 116 259 49 264 -83 500 -330 589
-82 29 -205 37 -274 17z m265 -186 c64 -34 127 -98 162 -164 18 -34 22 -57 22
-145 0 -92 -3 -111 -25 -154 -37 -73 -94 -132 -158 -163 -50 -24 -69 -27 -152
-28 -90 0 -99 2 -158 34 -72 39 -121 92 -157 168 -33 69 -35 186 -4 268 37 98
137 187 244 216 61 17 161 2 226 -32z"/>
<path d="M885 1070 c-121 -123 -118 -121 -170 -70 -44 44 -65 46 -65 7 0 -23
95 -127 115 -127 6 0 64 53 129 119 82 82 117 124 114 137 -7 38 -35 23 -123
-66z"/>
</g>
</svg>
